<?xml version="1.0" standalone="no"?><!DOCTYPE svg PUBLIC "-//W3C//DTD SVG 1.1//EN" "http://www.w3.org/Graphics/SVG/1.1/DTD/svg11.dtd"><svg xmlns="http://www.w3.org/2000/svg" version="1.1" width="735.667" height="556.417" xmlns:xlink="http://www.w3.org/1999/xlink" xlink="http://www.w3.org/1999/xlink" style="position:relative;overflow:hidden;" viewBox="148.333 -8.708 735.667 556.417"><defs/><g><g width="138.5" height="337.167" transform="scale(1,1) translate(161.333,112.833)"><g stroke="#000000" stroke-opacity="1" stroke-width="2" stroke-dasharray="none" width="138.5" height="337.167" transform="scale(1,1) translate(0,0)" fill="none"><rect width="138.5" height="337.167"/></g><g width="130.83333333333334" height="329.49999966224044" transform="scale(1,1) translate(3.833,3.833)"><text width="130.83333333333334" height="37.5" transform="scale(1,1) translate(0,145.99999983112022)" xml:space="preserve"><tspan xml:space="preserve" text-rendering="optimizeSpeed" font-size="16.666666666666668" font-weight="bold" font-style="normal" text-decoration="none" fill="#000000" opacity="1" x="21.17" text-anchor="start" y="15.625" textLength="88.49283599853516" style="font-family: Arial Narrow, Arial, Helvetica, sans-serif;">TransModeler</tspan></text></g></g><g width="133" height="33.333" transform="scale(1,1) translate(279,155)"><g stroke="#000000" stroke-opacity="1" stroke-width="1" stroke-dasharray="none" width="133" height="33.333" transform="scale(1,1) translate(0,0)" fill="#FFFFFF" fill-opacity="1"><rect width="133" height="33.333"/></g><g width="132" height="32.33333333333337" transform="scale(1,1) translate(0.5,0.5)"><text width="132" height="18.75" transform="scale(1,1) translate(0,6.791666666666686)" xml:space="preserve"><tspan xml:space="preserve" text-rendering="optimizeSpeed" font-size="16.666666666666668" font-weight="bold" font-style="normal" text-decoration="none" fill="#000000" opacity="1" x="20.81" text-anchor="start" y="15.625" textLength="90.380859375" style="font-family: Arial Narrow, Arial, Helvetica, sans-serif;">Firing Events</tspan></text></g><g fill="#9999FF" stroke="#9999FF" stroke-opacity="1" opacity="0" transform="scale(1,1) translate(0,0)"><path fill="none" stroke-width="1" stroke-dasharray="none" d="M0,0"/></g><g width="19.466144561767578" height="11.458333015441895" transform="scale(1,1) translate(56.767,-17.458)" opacity="0"><text width="19.466144561767578" height="11.458333015441895" transform="scale(1,1) translate(0,0)" xml:space="preserve"><tspan xml:space="preserve" text-rendering="optimizeSpeed" font-size="10" font-weight="normal" font-style="normal" text-decoration="none" fill="#000" opacity="1" x="0" text-anchor="start" y="9.375" textLength="19.466144561767578" style="font-family: Arial, Helvetica Neue, Helvetica, sans-serif;">1.33</tspan></text></g><g transform="scale(1,1) translate(0,0)" fill="black" opacity="0"><path d="M53.902,-14.594 L53.902,-8.865 L48.173,-11.729 L53.902,-14.594 z"/></g><g transform="scale(1,1) translate(0,0)" fill="black" opacity="0"><path d="M79.098,-14.594 L79.098,-8.865 L84.827,-11.729 L79.098,-14.594 z"/></g><g width="19.466144561767578" height="11.458333015441895" transform="rotate(270,139,26.4) scale(1,1) translate(139,26.4)" opacity="0"><text width="19.466144561767578" height="11.458333015441895" transform="scale(1,1) translate(0,0)" xml:space="preserve"><tspan xml:space="preserve" text-rendering="optimizeSpeed" font-size="10" font-weight="normal" font-style="normal" text-decoration="none" fill="#000" opacity="1" x="0" text-anchor="start" y="9.375" textLength="19.466144561767578" style="font-family: Arial, Helvetica Neue, Helvetica, sans-serif;">0.33</tspan></text></g><g transform="scale(1,1) translate(0,0)" fill="black" opacity="0"><path d="M147.594,4.069 L141.865,4.069 L144.729,-1.66 L147.594,4.069 z"/></g><g transform="scale(1,1) translate(0,0)" fill="black" opacity="0"><path d="M147.594,29.264 L141.865,29.264 L144.729,34.993 L147.594,29.264 z"/></g></g><g width="142.5" height="342" transform="scale(1,1) translate(728.5,108)"><g stroke="#000000" stroke-opacity="1" stroke-width="2" stroke-dasharray="none" width="142.5" height="342" transform="scale(1,1) translate(0,0)" fill="none"><rect width="142.5" height="342"/></g><g width="134.83333333333337" height="334.3333330353102" transform="scale(1,1) translate(3.833,3.833)"><text width="134.83333333333337" height="56.25" transform="scale(1,1) translate(0,139.0416665176551)" xml:space="preserve"><tspan xml:space="preserve" text-rendering="optimizeSpeed" font-size="16.666666666666668" font-weight="bold" font-style="normal" text-decoration="none" fill="#000000" opacity="1" x="15.195" text-anchor="start" y="34.375" textLength="104.44335174560547" style="font-family: Arial Narrow, Arial, Helvetica, sans-serif;">Vehicle Monitor</tspan></text></g></g><g width="639.417" height="4.833" transform="scale(1,1) translate(195.958,108)"><g transform="scale(1,1) translate(0,0)" fill="#000000" stroke="#000000" stroke-opacity="1"><path d="M 0 4.833 L 0 -83 L 639.417 -83 L 639.417 -8" fill="none" stroke-width="2" stroke-dasharray="none"/><g><g stroke-dasharray="none"><path d="M643.417,-8L639.417,0L635.417,-8z" stroke="none" fill-opacity="1"/></g></g></g><g stroke-width="0" stroke-dasharray="none" fill="#F2F2F2" opacity="0" width="17.202" height="20.75" transform="scale(1,1) translate(311.107,-93.375)"><rect width="17.202" height="20.75"/></g><g width="15.201822280883789" height="87.83333333333333" transform="scale(1,1) translate(312.107,-92.375)"><text width="15.201822280883789" height="18.75" transform="scale(1,1) translate(0,0)" xml:space="preserve"/></g></g><g width="639.417" height="2" transform="scale(1,1) translate(195.958,450)"><g transform="scale(1,1) translate(0,0)" fill="#545454" stroke="#545454" stroke-opacity="1"><path d="M 0 0 L 0 64 L 639.417 64 L 639.417 8" fill="none" stroke-width="2" stroke-dasharray="none"/><g><g stroke-dasharray="none"><path d="M635.417,8L639.417,0L643.417,8z" stroke="none" fill-opacity="1"/></g></g></g><g stroke-width="0" stroke-dasharray="none" fill="#F2F2F2" opacity="0" width="40.005" height="20.75" transform="scale(1,1) translate(299.706,53.625)"><rect width="40.005" height="20.75"/></g><g width="38.004554748535156" height="64" transform="scale(1,1) translate(300.706,54.625)"><text width="38.004554748535156" height="18.75" transform="scale(1,1) translate(0,0)" xml:space="preserve"/></g></g><g width="316.5" height="107.333" transform="scale(1,1) translate(412,171.667)"><g transform="scale(1,1) translate(0,0)" fill="#000000" stroke="#000000" stroke-opacity="1"><path d="M 0 0 A 196.333 53.667 0 0 1 196.333 53.667 A 120.167 53.667 0 0 0 308.501 107.216" fill="none" stroke-width="2" stroke-dasharray="none"/><g><g stroke-dasharray="none"><path d="M308.56,103.216L316.5,107.333L308.443,111.215z" stroke="none" fill-opacity="1"/></g></g></g></g><g width="316.167" height="116.917" transform="scale(1,1) translate(299.833,281.417)"><g transform="scale(1,1) translate(0,0)" fill="#000000" stroke="#000000" stroke-opacity="1"><path d="M 7.998 0.156 A 108.5 58.458 0 0 1 108.5 58.458 A 207.667 58.458 0 0 0 316.167 116.917" fill="none" stroke-width="2" stroke-dasharray="none"/><g><g stroke-dasharray="none"><path d="M7.92,4.156L-0.001,0L8.076,-3.843z" stroke="none" fill-opacity="1"/></g></g></g></g><g width="498.917" height="4.833" transform="scale(1,1) translate(265.208,108)"><g transform="scale(1,1) translate(0,0)" fill="#000000" stroke="#000000" stroke-opacity="1"><path d="M 0 -3.167 L 0 -43 L 498.917 -43 L 498.917 0" fill="none" stroke-width="2" stroke-dasharray="none"/><g><g stroke-dasharray="none"><path d="M4,-3.167L0,4.833L-4,-3.167z" stroke="none" fill-opacity="1"/></g></g></g><g stroke-width="0" stroke-dasharray="none" fill="#FFFFFF" opacity="0" width="15.949" height="20.75" transform="scale(1,1) translate(241.484,-53.375)"><rect width="15.949" height="20.75"/></g><g width="13.948566913604736" height="47.833333333333314" transform="scale(1,1) translate(242.484,-52.375)"><text width="13.948566913604736" height="18.75" transform="scale(1,1) translate(0,0)" xml:space="preserve"/></g></g><g width="498.917" height="2" transform="scale(1,1) translate(265.208,450)"><g transform="scale(1,1) translate(0,0)" fill="#000000" stroke="#000000" stroke-opacity="1"><path d="M 0 8 L 0 24 L 498.917 24 L 498.917 0" fill="none" stroke-width="2" stroke-dasharray="none"/><g><g stroke-dasharray="none"><path d="M-4,8L0,0L4,8z" stroke="none" fill-opacity="1"/></g></g></g><g stroke-width="0" stroke-dasharray="none" fill="#FDEADA" opacity="0" width="32.404" height="20.75" transform="scale(1,1) translate(233.257,13.625)"><rect width="32.404" height="20.75"/></g><g width="30.403644561767578" height="24" transform="scale(1,1) translate(234.257,14.625)"><text width="30.403644561767578" height="18.75" transform="scale(1,1) translate(0,0)" xml:space="preserve"/></g></g><g width="211.556" height="225" transform="scale(1,1) translate(444.222,79.167)"><g stroke="#000000" stroke-opacity="1" stroke-width="0" stroke-dasharray="none" width="211.556" height="225" transform="scale(1,1) translate(0,0)" fill="none"><rect width="211.556" height="225"/></g><g width="211.555983543396" height="225" transform="scale(1,1) translate(0,0)"><text width="211.555983543396" height="225" transform="scale(1,1) translate(0,0)" xml:space="preserve"><tspan xml:space="preserve" text-rendering="optimizeSpeed" font-size="16.666666666666668" font-weight="bold" font-style="normal" text-decoration="none" fill="#333333" opacity="1" x="15.625" text-anchor="start" y="15.625" textLength="83.52864074707031" style="font-family: Arial Narrow, Arial, Helvetica, sans-serif;">OnDeparture</tspan><tspan xml:space="preserve" text-rendering="optimizeSpeed" font-size="16.666666666666668" font-weight="bold" font-style="normal" text-decoration="none" fill="#333333" opacity="1" x="15.625" text-anchor="start" y="34.375" textLength="62.28841018676758" style="font-family: Arial Narrow, Arial, Helvetica, sans-serif;">OnArrival</tspan><tspan xml:space="preserve" text-rendering="optimizeSpeed" font-size="16.666666666666668" font-weight="bold" font-style="normal" text-decoration="none" fill="#333333" opacity="1" x="15.625" text-anchor="start" y="53.125" textLength="98.71418762207031" style="font-family: Arial Narrow, Arial, Helvetica, sans-serif;">OnStateUpdate</tspan><tspan xml:space="preserve" text-rendering="optimizeSpeed" font-size="16.666666666666668" font-weight="bold" font-style="normal" text-decoration="none" fill="#333333" opacity="1" x="15.625" text-anchor="start" y="71.875" textLength="123.01432037353516" style="font-family: Arial Narrow, Arial, Helvetica, sans-serif;">OnPositionChange</tspan><tspan xml:space="preserve" text-rendering="optimizeSpeed" font-size="16.666666666666668" font-weight="bold" font-style="normal" text-decoration="none" fill="#333333" opacity="1" x="15.625" text-anchor="start" y="128.125" textLength="63.80208206176758" style="font-family: Arial Narrow, Arial, Helvetica, sans-serif;">OnStalled</tspan><tspan xml:space="preserve" text-rendering="optimizeSpeed" font-size="16.666666666666668" font-weight="bold" font-style="normal" text-decoration="none" fill="#333333" opacity="1" x="15.625" text-anchor="start" y="146.875" textLength="64.56705474853516" style="font-family: Arial Narrow, Arial, Helvetica, sans-serif;">OnParked</tspan><tspan xml:space="preserve" text-rendering="optimizeSpeed" font-size="16.666666666666668" font-weight="bold" font-style="normal" text-decoration="none" fill="#333333" opacity="1" x="15.625" text-anchor="start" y="165.625" textLength="94.17317199707031" style="font-family: Arial Narrow, Arial, Helvetica, sans-serif;">OnTransitStop</tspan><tspan xml:space="preserve" text-rendering="optimizeSpeed" font-size="16.666666666666668" font-weight="bold" font-style="normal" text-decoration="none" fill="#333333" opacity="1" x="15.625" text-anchor="start" y="184.375" textLength="88.11848449707031" style="font-family: Arial Narrow, Arial, Helvetica, sans-serif;">OnAccelerate</tspan><tspan xml:space="preserve" text-rendering="optimizeSpeed" font-size="16.666666666666668" font-weight="bold" font-style="normal" text-decoration="none" fill="#333333" opacity="1" x="15.625" text-anchor="start" y="203.125" textLength="101.00910949707031" style="font-family: Arial Narrow, Arial, Helvetica, sans-serif;">OnLaneChange</tspan><tspan xml:space="preserve" text-rendering="optimizeSpeed" font-size="16.666666666666668" font-weight="bold" font-style="normal" text-decoration="none" fill="#333333" opacity="1" x="15.625" text-anchor="start" y="221.875" textLength="195.9309844970703" style="font-family: Arial Narrow, Arial, Helvetica, sans-serif;">OnCalculateCarFollowingRate</tspan></text><g width="211.555983543396" height="225" transform="scale(1,1) translate(0,0)"><g width="7.812" height="7.812" transform="scale(1,1) translate(3.906,7.812)" fill="#333333" stroke="none" stroke-width="0" stroke-dasharray="none"><ellipse rx="3.906" ry="3.906" cx="3.906" cy="3.906"/></g><g width="7.812" height="7.812" transform="scale(1,1) translate(3.906,26.562)" fill="#333333" stroke="none" stroke-width="0" stroke-dasharray="none"><ellipse rx="3.906" ry="3.906" cx="3.906" cy="3.906"/></g><g width="7.812" height="7.812" transform="scale(1,1) translate(3.906,45.312)" fill="#333333" stroke="none" stroke-width="0" stroke-dasharray="none"><ellipse rx="3.906" ry="3.906" cx="3.906" cy="3.906"/></g><g width="7.812" height="7.812" transform="scale(1,1) translate(3.906,64.062)" fill="#333333" stroke="none" stroke-width="0" stroke-dasharray="none"><ellipse rx="3.906" ry="3.906" cx="3.906" cy="3.906"/></g><g width="7.812" height="7.812" transform="scale(1,1) translate(3.906,120.312)" fill="#333333" stroke="none" stroke-width="0" stroke-dasharray="none"><ellipse rx="3.906" ry="3.906" cx="3.906" cy="3.906"/></g><g width="7.812" height="7.812" transform="scale(1,1) translate(3.906,139.062)" fill="#333333" stroke="none" stroke-width="0" stroke-dasharray="none"><ellipse rx="3.906" ry="3.906" cx="3.906" cy="3.906"/></g><g width="7.812" height="7.812" transform="scale(1,1) translate(3.906,157.812)" fill="#333333" stroke="none" stroke-width="0" stroke-dasharray="none"><ellipse rx="3.906" ry="3.906" cx="3.906" cy="3.906"/></g><g width="7.812" height="7.812" transform="scale(1,1) translate(3.906,176.562)" fill="#333333" stroke="none" stroke-width="0" stroke-dasharray="none"><ellipse rx="3.906" ry="3.906" cx="3.906" cy="3.906"/></g><g width="7.812" height="7.812" transform="scale(1,1) translate(3.906,195.312)" fill="#333333" stroke="none" stroke-width="0" stroke-dasharray="none"><ellipse rx="3.906" ry="3.906" cx="3.906" cy="3.906"/></g><g width="7.812" height="7.812" transform="scale(1,1) translate(3.906,214.062)" fill="#333333" stroke="none" stroke-width="0" stroke-dasharray="none"><ellipse rx="3.906" ry="3.906" cx="3.906" cy="3.906"/></g></g></g></g><g width="153.743" height="18.75" transform="scale(1,1) translate(682.628,3.292)"><g stroke="#545454" stroke-opacity="1" stroke-width="0" stroke-dasharray="none" width="153.743" height="18.75" transform="scale(1,1) translate(0,0)" fill="none"><rect width="153.743" height="18.75"/></g><g width="153.7434844970703" height="18.75" transform="scale(1,1) translate(0,0)"><text width="153.7434844970703" height="18.75" transform="scale(1,1) translate(0,0)" xml:space="preserve"><tspan xml:space="preserve" text-rendering="optimizeSpeed" font-size="16.666666666666668" font-weight="bold" font-style="italic" text-decoration="none" fill="#000000" opacity="1" x="0" text-anchor="start" y="15.625" textLength="153.7434844970703" style="font-family: Arial Narrow, Arial, Helvetica, sans-serif;">DLL PROCESS ATTACH</tspan></text></g></g><g width="179.997" height="18.75" transform="scale(1,1) translate(263.235,43.958)"><g stroke="#545454" stroke-opacity="1" stroke-width="0" stroke-dasharray="none" width="179.997" height="18.75" transform="scale(1,1) translate(0,0)" fill="none"><rect width="179.997" height="18.75"/></g><g width="179.99673461914062" height="18.75" transform="scale(1,1) translate(0,0)"><text width="179.99673461914062" height="18.75" transform="scale(1,1) translate(0,0)" xml:space="preserve"><tspan xml:space="preserve" text-rendering="optimizeSpeed" font-size="16.666666666666668" font-weight="bold" font-style="normal" text-decoration="none" fill="#000000" opacity="1" x="0" text-anchor="start" y="15.625" textLength="179.99673461914062" style="font-family: Arial Narrow, Arial, Helvetica, sans-serif;">RegisterVehicleMonitor (...)</tspan></text></g></g><g width="163.965" height="18.75" transform="scale(1,1) translate(676.481,516.958)"><g stroke="#545454" stroke-opacity="1" stroke-width="0" stroke-dasharray="none" width="163.965" height="18.75" transform="scale(1,1) translate(0,0)" fill="none"><rect width="163.965" height="18.75"/></g><g width="163.96484375" height="18.75" transform="scale(1,1) translate(0,0)"><text width="163.96484375" height="18.75" transform="scale(1,1) translate(0,0)" xml:space="preserve"><tspan xml:space="preserve" text-rendering="optimizeSpeed" font-size="16.666666666666668" font-weight="bold" font-style="italic" text-decoration="none" fill="#000000" opacity="1" x="0" text-anchor="start" y="15.625" textLength="160.15625" style="font-family: Arial Narrow, Arial, Helvetica, sans-serif;"> DLL PROCESS DETACH</tspan></text></g></g><g width="193.669" height="18.75" transform="scale(1,1) translate(263.208,474.146)"><g stroke="#545454" stroke-opacity="1" stroke-width="0" stroke-dasharray="none" width="193.669" height="18.75" transform="scale(1,1) translate(0,0)" fill="none"><rect width="193.669" height="18.75"/></g><g width="193.66860961914062" height="18.75" transform="scale(1,1) translate(0,0)"><text width="193.66860961914062" height="18.75" transform="scale(1,1) translate(0,0)" xml:space="preserve"><tspan xml:space="preserve" text-rendering="optimizeSpeed" font-size="16.666666666666668" font-weight="bold" font-style="normal" text-decoration="none" fill="#000000" opacity="1" x="0" text-anchor="start" y="15.625" textLength="193.66860961914062" style="font-family: Arial Narrow, Arial, Helvetica, sans-serif;">UnregisterVehicleMonitor (...)</tspan></text></g></g><g width="133" height="33.333" transform="scale(1,1) translate(616,381.667)"><g stroke="#000000" stroke-opacity="1" stroke-width="1" stroke-dasharray="none" width="133" height="33.333" transform="scale(1,1) translate(0,0)" fill="#FFFFFF" fill-opacity="1"><rect width="133" height="33.333"/></g><g width="132" height="32.33333333333337" transform="scale(1,1) translate(0.5,0.5)"><text width="132" height="18.75" transform="scale(1,1) translate(0,6.791666666666686)" xml:space="preserve"><tspan xml:space="preserve" text-rendering="optimizeSpeed" font-size="16.666666666666668" font-weight="bold" font-style="normal" text-decoration="none" fill="#000000" opacity="1" x="10.548" text-anchor="start" y="15.625" textLength="110.90494537353516" style="font-family: Arial Narrow, Arial, Helvetica, sans-serif;">Events Handlers</tspan></text></g><g fill="#9999FF" stroke="#9999FF" stroke-opacity="1" opacity="0" transform="scale(1,1) translate(0,0)"><path fill="none" stroke-width="1" stroke-dasharray="none" d="M0,-4 L0,-31.729 L53.767,-31.729 M79.233,-31.729 L133,-31.729 L133,-4 M137,0 L164.729,0 L164.729,3.934 M164.729,29.4 L164.729,33.333 L137,33.333"/><g><g stroke-dasharray="none"><path d="M-1,-5L1,-5L1,-3L-1,-3z" stroke-width="0" fill="none"/></g></g></g><g width="19.466144561767578" height="11.458333015441895" transform="scale(1,1) translate(56.767,-37.458)" opacity="0"><text width="19.466144561767578" height="11.458333015441895" transform="scale(1,1) translate(0,0)" xml:space="preserve"><tspan xml:space="preserve" text-rendering="optimizeSpeed" font-size="10" font-weight="normal" font-style="normal" text-decoration="none" fill="#000" opacity="1" x="0" text-anchor="start" y="9.375" textLength="19.466144561767578" style="font-family: Arial, Helvetica Neue, Helvetica, sans-serif;">1.33</tspan></text></g><g width="19.466144561767578" height="11.458333015441895" transform="rotate(270,159,26.4) scale(1,1) translate(159,26.4)" opacity="0"><text width="19.466144561767578" height="11.458333015441895" transform="scale(1,1) translate(0,0)" xml:space="preserve"><tspan xml:space="preserve" text-rendering="optimizeSpeed" font-size="10" font-weight="normal" font-style="normal" text-decoration="none" fill="#000" opacity="1" x="0" text-anchor="start" y="9.375" textLength="19.466144561767578" style="font-family: Arial, Helvetica Neue, Helvetica, sans-serif;">0.33</tspan></text></g></g></g></svg>