<?xml version="1.0" standalone="no"?><!DOCTYPE svg PUBLIC "-//W3C//DTD SVG 1.1//EN" "http://www.w3.org/Graphics/SVG/1.1/DTD/svg11.dtd"><svg xmlns="http://www.w3.org/2000/svg" version="1.1" width="717.667" height="636.708" xmlns:xlink="http://www.w3.org/1999/xlink" xlink="http://www.w3.org/1999/xlink" style="position:relative;overflow:hidden;" viewBox="189.333 -7 717.667 636.708"><defs/><g><g width="138.5" height="352.5" transform="scale(1,1) translate(202.333,172.833)"><g stroke="#1F497D" stroke-opacity="1" stroke-width="2" stroke-dasharray="none" width="138.5" height="352.5" transform="scale(1,1) translate(0,0)" fill="none"><rect width="138.5" height="352.5"/></g><g width="130.83333333333334" height="344.8333333333333" transform="scale(1,1) translate(3.833,3.833)"><text width="130.83333333333334" height="37.5" transform="scale(1,1) translate(0,153.66666666666666)" xml:space="preserve"><tspan xml:space="preserve" text-rendering="optimizeSpeed" font-size="16.666666666666668" font-weight="bold" font-style="normal" text-decoration="none" fill="#000000" opacity="1" x="21.17" text-anchor="start" y="15.625" textLength="88.49283599853516" style="font-family: Arial Narrow, Arial, Helvetica, sans-serif;">TransModeler</tspan><tspan xml:space="preserve" text-rendering="optimizeSpeed" font-size="16.666666666666668" font-weight="bold" font-style="normal" text-decoration="none" fill="#000000" opacity="1" x="50.231" text-anchor="start" y="34.375" textLength="30.371091842651367" style="font-family: Arial Narrow, Arial, Helvetica, sans-serif;">Host</tspan></text></g></g><g width="142.5" height="357" transform="scale(1,1) translate(751.5,168)"><g stroke="#FFC000" stroke-opacity="1" stroke-width="2" stroke-dasharray="none" width="142.5" height="357" transform="scale(1,1) translate(0,0)" fill="none"><rect width="142.5" height="357"/></g><g width="134.83333333333334" height="349.3333333333333" transform="scale(1,1) translate(3.833,3.833)"><text width="134.83333333333334" height="43.75" transform="scale(1,1) translate(0,152.79166666666666)" xml:space="preserve"><tspan xml:space="preserve" text-rendering="optimizeSpeed" font-size="19.444444444444443" font-weight="bold" font-style="normal" text-decoration="none" fill="#000000" opacity="1" x="6.512" text-anchor="start" y="17.708" textLength="121.80989074707031" style="font-family: Arial Narrow, Arial, Helvetica, sans-serif;">Vehicle Monitor</tspan><tspan xml:space="preserve" text-rendering="optimizeSpeed" font-size="19.444444444444443" font-weight="bold" font-style="normal" text-decoration="none" fill="#000000" opacity="1" x="43.06" text-anchor="start" y="39.583" textLength="48.71419143676758" style="font-family: Arial Narrow, Arial, Helvetica, sans-serif;">Plugin</tspan></text></g></g><g width="621.375" height="4.833" transform="scale(1,1) translate(236.958,168)"><g transform="scale(1,1) translate(0,0)" fill="#000000" stroke="#000000" stroke-opacity="1"><path d="M 0 4.833 L 0 -83 L 621.375 -83 L 621.375 -8" fill="none" stroke-width="2" stroke-dasharray="none"/><g><g stroke-dasharray="none"><path d="M625.375,-8L621.375,0L617.375,-8z" stroke="none" fill-opacity="1"/></g></g></g><g stroke-width="0" stroke-dasharray="none" fill="#F2F2F2" opacity="0" width="17.202" height="20.75" transform="scale(1,1) translate(302.087,-93.375)"><rect width="17.202" height="20.75"/></g><g width="15.201822280883789" height="87.83333333333333" transform="scale(1,1) translate(303.087,-92.375)"><text width="15.201822280883789" height="18.75" transform="scale(1,1) translate(0,0)" xml:space="preserve"/></g></g><g width="621.375" height="2" transform="scale(1,1) translate(236.958,525)"><g transform="scale(1,1) translate(0,0)" fill="#545454" stroke="#545454" stroke-opacity="1"><path d="M 0 0.33299999999999996 L 0 64.333 L 621.375 64.333 L 621.375 8" fill="none" stroke-width="2" stroke-dasharray="none"/><g><g stroke-dasharray="none"><path d="M617.375,8L621.375,0L625.375,8z" stroke="none" fill-opacity="1"/></g></g></g><g stroke-width="0" stroke-dasharray="none" fill="#F2F2F2" opacity="0" width="40.005" height="20.75" transform="scale(1,1) translate(290.685,53.958)"><rect width="40.005" height="20.75"/></g><g width="38.004554748535156" height="64.33333333333326" transform="scale(1,1) translate(291.685,54.958)"><text width="38.004554748535156" height="18.75" transform="scale(1,1) translate(0,0)" xml:space="preserve"/></g></g><g width="408.333" height="66.667" transform="scale(1,1) translate(341.667,225)"><g transform="scale(1,1) translate(0,0)" fill="#000000" stroke="#000000" stroke-opacity="1"><path d="M 0 0 A 61 33.333 0 0 1 61 33.333 A 347.333 33.333 0 0 0 400.333 66.658" fill="none" stroke-width="2" stroke-dasharray="none"/><g><g stroke-dasharray="none"><path d="M400.338,62.658L408.333,66.667L400.328,70.658z" stroke="none" fill-opacity="1"/></g></g></g><g stroke-width="0" stroke-dasharray="none" fill="#FFFFFF" opacity="1" width="92.381" height="20.75" transform="scale(1,1) translate(14.81,22.958)"><rect width="92.381" height="20.75"/></g><g width="90.380859375" height="66.66666666666669" transform="scale(1,1) translate(15.81,23.958)"><text width="90.380859375" height="18.75" transform="scale(1,1) translate(0,0)" xml:space="preserve"><tspan xml:space="preserve" text-rendering="optimizeSpeed" font-size="16.666666666666668" font-weight="bold" font-style="normal" text-decoration="underline" fill="#333333" opacity="1" x="0" text-anchor="start" y="15.625" textLength="90.380859375" style="font-family: Arial Narrow, Arial, Helvetica, sans-serif;">Firing Events</tspan></text><g width="90.380859375" height="18.75" transform="scale(1,1) translate(0,0)"><path d="M0,17.625h90.381" stroke-width="1" stroke="#333333" fill="none"/></g></g></g><g width="408.333" height="66.667" transform="scale(1,1) translate(341.667,408.333)"><g transform="scale(1,1) translate(0,0)" fill="#000000" stroke="#000000" stroke-opacity="1"><path d="M 8 66.656 A 305.833 33.333 0 0 0 305.833 33.333 A 102.5 33.333 0 0 1 408.333 0" fill="none" stroke-width="2" stroke-dasharray="none"/><g><g stroke-dasharray="none"><path d="M8.006,70.656L0,66.667L7.994,62.656z" stroke="none" fill-opacity="1"/></g></g></g><g stroke-width="0" stroke-dasharray="none" fill="#FFFFFF" opacity="1" width="105.304" height="20.75" transform="scale(1,1) translate(253.181,22.958)"><rect width="105.304" height="20.75"/></g><g width="103.30403137207031" height="66.66666666666669" transform="scale(1,1) translate(254.181,23.958)"><text width="103.30403137207031" height="18.75" transform="scale(1,1) translate(0,0)" xml:space="preserve"><tspan xml:space="preserve" text-rendering="optimizeSpeed" font-size="16.666666666666668" font-weight="bold" font-style="normal" text-decoration="underline" fill="#333333" opacity="1" x="0" text-anchor="start" y="15.625" textLength="103.30403137207031" style="font-family: Arial Narrow, Arial, Helvetica, sans-serif;">Event Handlers</tspan></text><g width="103.30403137207031" height="18.75" transform="scale(1,1) translate(0,0)"><path d="M0,17.625h103.304" stroke-width="1" stroke="#333333" fill="none"/></g></g></g><g width="480.792" height="4.833" transform="scale(1,1) translate(306.208,168)"><g transform="scale(1,1) translate(0,0)" fill="#000000" stroke="#000000" stroke-opacity="1"><path d="M 0 -3.167 L 0 -43 L 480.792 -43 L 480.792 0" fill="none" stroke-width="2" stroke-dasharray="none"/><g><g stroke-dasharray="none"><path d="M4,-3.167L0,4.833L-4,-3.167z" stroke="none" fill-opacity="1"/></g></g></g><g stroke-width="0" stroke-dasharray="none" fill="#ffffff" opacity="0" width="15.949" height="20.75" transform="scale(1,1) translate(232.422,-53.375)"><rect width="15.949" height="20.75"/></g><g width="13.948566913604736" height="47.833333333333314" transform="scale(1,1) translate(233.422,-52.375)"><text width="13.948566913604736" height="18.75" transform="scale(1,1) translate(0,0)" xml:space="preserve"/></g><g fill="#9999FF" stroke="#9999FF" stroke-opacity="1" opacity="0" transform="scale(1,1) translate(0,0)"><path fill="none" stroke-width="1" stroke-dasharray="none" d="M0,0"/></g></g><g width="480.792" height="2" transform="scale(1,1) translate(306.208,525)"><g transform="scale(1,1) translate(0,0)" fill="#000000" stroke="#000000" stroke-opacity="1"><path d="M 0 8.333 L 0 24.333 L 480.792 24.333 L 480.792 0" fill="none" stroke-width="2" stroke-dasharray="none"/><g><g stroke-dasharray="none"><path d="M-4,8.333L0,0.333L4,8.333z" stroke="none" fill-opacity="1"/></g></g></g><g stroke-width="0" stroke-dasharray="none" fill="#FDEADA" opacity="0" width="32.404" height="20.75" transform="scale(1,1) translate(224.194,13.958)"><rect width="32.404" height="20.75"/></g><g width="30.403644561767578" height="24.333333333333258" transform="scale(1,1) translate(225.194,14.958)"><text width="30.403644561767578" height="18.75" transform="scale(1,1) translate(0,0)" xml:space="preserve"/></g></g><g width="211.556" height="206.25" transform="scale(1,1) translate(519.222,162.5)"><g stroke="#000000" stroke-opacity="1" stroke-width="0" stroke-dasharray="none" width="211.556" height="206.25" transform="scale(1,1) translate(0,0)" fill="none"><rect width="211.556" height="206.25"/></g><g width="211.555983543396" height="206.25" transform="scale(1,1) translate(0,0)"><text width="211.555983543396" height="206.25" transform="scale(1,1) translate(0,0)" xml:space="preserve"><tspan xml:space="preserve" text-rendering="optimizeSpeed" font-size="16.666666666666668" font-weight="bold" font-style="normal" text-decoration="none" fill="#333333" opacity="1" x="15.625" text-anchor="start" y="15.625" textLength="83.52864074707031" style="font-family: Arial Narrow, Arial, Helvetica, sans-serif;">OnDeparture</tspan><tspan xml:space="preserve" text-rendering="optimizeSpeed" font-size="16.666666666666668" font-weight="bold" font-style="normal" text-decoration="none" fill="#333333" opacity="1" x="15.625" text-anchor="start" y="34.375" textLength="62.28841018676758" style="font-family: Arial Narrow, Arial, Helvetica, sans-serif;">OnArrival</tspan><tspan xml:space="preserve" text-rendering="optimizeSpeed" font-size="16.666666666666668" font-weight="bold" font-style="normal" text-decoration="none" fill="#333333" opacity="1" x="15.625" text-anchor="start" y="53.125" textLength="98.71418762207031" style="font-family: Arial Narrow, Arial, Helvetica, sans-serif;">OnStateUpdate</tspan><tspan xml:space="preserve" text-rendering="optimizeSpeed" font-size="16.666666666666668" font-weight="bold" font-style="normal" text-decoration="none" fill="#333333" opacity="1" x="15.625" text-anchor="start" y="71.875" textLength="123.01432037353516" style="font-family: Arial Narrow, Arial, Helvetica, sans-serif;">OnPositionChange</tspan><tspan xml:space="preserve" text-rendering="optimizeSpeed" font-size="16.666666666666668" font-weight="bold" font-style="normal" text-decoration="none" fill="#333333" opacity="1" x="15.625" text-anchor="start" y="90.625" textLength="63.80208206176758" style="font-family: Arial Narrow, Arial, Helvetica, sans-serif;">OnStalled</tspan><tspan xml:space="preserve" text-rendering="optimizeSpeed" font-size="16.666666666666668" font-weight="bold" font-style="normal" text-decoration="none" fill="#333333" opacity="1" x="15.625" text-anchor="start" y="109.375" textLength="64.56705474853516" style="font-family: Arial Narrow, Arial, Helvetica, sans-serif;">OnParked</tspan><tspan xml:space="preserve" text-rendering="optimizeSpeed" font-size="16.666666666666668" font-weight="bold" font-style="normal" text-decoration="none" fill="#333333" opacity="1" x="15.625" text-anchor="start" y="146.875" textLength="94.17317199707031" style="font-family: Arial Narrow, Arial, Helvetica, sans-serif;">OnTransitStop</tspan><tspan xml:space="preserve" text-rendering="optimizeSpeed" font-size="16.666666666666668" font-weight="bold" font-style="normal" text-decoration="none" fill="#333333" opacity="1" x="15.625" text-anchor="start" y="165.625" textLength="88.11848449707031" style="font-family: Arial Narrow, Arial, Helvetica, sans-serif;">OnAccelerate</tspan><tspan xml:space="preserve" text-rendering="optimizeSpeed" font-size="16.666666666666668" font-weight="bold" font-style="normal" text-decoration="none" fill="#333333" opacity="1" x="15.625" text-anchor="start" y="184.375" textLength="101.00910949707031" style="font-family: Arial Narrow, Arial, Helvetica, sans-serif;">OnLaneChange</tspan><tspan xml:space="preserve" text-rendering="optimizeSpeed" font-size="16.666666666666668" font-weight="bold" font-style="normal" text-decoration="none" fill="#333333" opacity="1" x="15.625" text-anchor="start" y="203.125" textLength="195.9309844970703" style="font-family: Arial Narrow, Arial, Helvetica, sans-serif;">OnCalculateCarFollowingRate</tspan></text><g width="211.555983543396" height="206.25" transform="scale(1,1) translate(0,0)"><g width="7.812" height="7.812" transform="scale(1,1) translate(3.906,7.812)" fill="#333333" stroke="none" stroke-width="0" stroke-dasharray="none"><ellipse rx="3.906" ry="3.906" cx="3.906" cy="3.906"/></g><g width="7.812" height="7.812" transform="scale(1,1) translate(3.906,26.562)" fill="#333333" stroke="none" stroke-width="0" stroke-dasharray="none"><ellipse rx="3.906" ry="3.906" cx="3.906" cy="3.906"/></g><g width="7.812" height="7.812" transform="scale(1,1) translate(3.906,45.312)" fill="#333333" stroke="none" stroke-width="0" stroke-dasharray="none"><ellipse rx="3.906" ry="3.906" cx="3.906" cy="3.906"/></g><g width="7.812" height="7.812" transform="scale(1,1) translate(3.906,64.062)" fill="#333333" stroke="none" stroke-width="0" stroke-dasharray="none"><ellipse rx="3.906" ry="3.906" cx="3.906" cy="3.906"/></g><g width="7.812" height="7.812" transform="scale(1,1) translate(3.906,82.812)" fill="#333333" stroke="none" stroke-width="0" stroke-dasharray="none"><ellipse rx="3.906" ry="3.906" cx="3.906" cy="3.906"/></g><g width="7.812" height="7.812" transform="scale(1,1) translate(3.906,101.562)" fill="#333333" stroke="none" stroke-width="0" stroke-dasharray="none"><ellipse rx="3.906" ry="3.906" cx="3.906" cy="3.906"/></g><g width="7.812" height="7.812" transform="scale(1,1) translate(3.906,139.062)" fill="#333333" stroke="none" stroke-width="0" stroke-dasharray="none"><ellipse rx="3.906" ry="3.906" cx="3.906" cy="3.906"/></g><g width="7.812" height="7.812" transform="scale(1,1) translate(3.906,157.812)" fill="#333333" stroke="none" stroke-width="0" stroke-dasharray="none"><ellipse rx="3.906" ry="3.906" cx="3.906" cy="3.906"/></g><g width="7.812" height="7.812" transform="scale(1,1) translate(3.906,176.562)" fill="#333333" stroke="none" stroke-width="0" stroke-dasharray="none"><ellipse rx="3.906" ry="3.906" cx="3.906" cy="3.906"/></g><g width="7.812" height="7.812" transform="scale(1,1) translate(3.906,195.312)" fill="#333333" stroke="none" stroke-width="0" stroke-dasharray="none"><ellipse rx="3.906" ry="3.906" cx="3.906" cy="3.906"/></g></g></g></g><g width="153.743" height="18.75" transform="scale(1,1) translate(696.628,61.292)"><g stroke="#545454" stroke-opacity="1" stroke-width="0" stroke-dasharray="none" width="153.743" height="18.75" transform="scale(1,1) translate(0,0)" fill="none"><rect width="153.743" height="18.75"/></g><g width="153.7434844970703" height="18.75" transform="scale(1,1) translate(0,0)"><text width="153.7434844970703" height="18.75" transform="scale(1,1) translate(0,0)" xml:space="preserve"><tspan xml:space="preserve" text-rendering="optimizeSpeed" font-size="16.666666666666668" font-weight="bold" font-style="italic" text-decoration="none" fill="#000000" opacity="1" x="0" text-anchor="start" y="15.625" textLength="153.7434844970703" style="font-family: Arial Narrow, Arial, Helvetica, sans-serif;">DLL PROCESS ATTACH</tspan></text></g></g><g width="179.997" height="18.75" transform="scale(1,1) translate(302.235,102.958)"><g stroke="#545454" stroke-opacity="1" stroke-width="0" stroke-dasharray="none" width="179.997" height="18.75" transform="scale(1,1) translate(0,0)" fill="none"><rect width="179.997" height="18.75"/></g><g width="179.99673461914062" height="18.75" transform="scale(1,1) translate(0,0)"><text width="179.99673461914062" height="18.75" transform="scale(1,1) translate(0,0)" xml:space="preserve"><tspan xml:space="preserve" text-rendering="optimizeSpeed" font-size="16.666666666666668" font-weight="bold" font-style="normal" text-decoration="none" fill="#000000" opacity="1" x="0" text-anchor="start" y="15.625" textLength="179.99673461914062" style="font-family: Arial Narrow, Arial, Helvetica, sans-serif;">RegisterVehicleMonitor (...)</tspan></text></g></g><g width="163.965" height="18.75" transform="scale(1,1) translate(689.481,598.958)"><g stroke="#545454" stroke-opacity="1" stroke-width="0" stroke-dasharray="none" width="163.965" height="18.75" transform="scale(1,1) translate(0,0)" fill="none"><rect width="163.965" height="18.75"/></g><g width="163.96484375" height="18.75" transform="scale(1,1) translate(0,0)"><text width="163.96484375" height="18.75" transform="scale(1,1) translate(0,0)" xml:space="preserve"><tspan xml:space="preserve" text-rendering="optimizeSpeed" font-size="16.666666666666668" font-weight="bold" font-style="italic" text-decoration="none" fill="#000000" opacity="1" x="0" text-anchor="start" y="15.625" textLength="160.15625" style="font-family: Arial Narrow, Arial, Helvetica, sans-serif;"> DLL PROCESS DETACH</tspan></text></g></g><g width="193.669" height="18.75" transform="scale(1,1) translate(304.208,550.146)"><g stroke="#545454" stroke-opacity="1" stroke-width="0" stroke-dasharray="none" width="193.669" height="18.75" transform="scale(1,1) translate(0,0)" fill="none"><rect width="193.669" height="18.75"/></g><g width="193.66860961914062" height="18.75" transform="scale(1,1) translate(0,0)"><text width="193.66860961914062" height="18.75" transform="scale(1,1) translate(0,0)" xml:space="preserve"><tspan xml:space="preserve" text-rendering="optimizeSpeed" font-size="16.666666666666668" font-weight="bold" font-style="normal" text-decoration="none" fill="#000000" opacity="1" x="0" text-anchor="start" y="15.625" textLength="193.66860961914062" style="font-family: Arial Narrow, Arial, Helvetica, sans-serif;">UnregisterVehicleMonitor (...)</tspan></text></g></g></g></svg>