<?xml version="1.0" standalone="no"?><!DOCTYPE svg PUBLIC "-//W3C//DTD SVG 1.1//EN" "http://www.w3.org/Graphics/SVG/1.1/DTD/svg11.dtd"><svg xmlns="http://www.w3.org/2000/svg" version="1.1" width="712.667" height="617.708" xmlns:xlink="http://www.w3.org/1999/xlink" xlink="http://www.w3.org/1999/xlink" style="position:relative;overflow:hidden;" viewBox="194.333 -7 712.667 617.708"><defs/><g><g width="138.5" height="352.5" transform="scale(1,1) translate(207.333,172.833)"><g stroke="#1F497D" stroke-opacity="1" stroke-width="2" stroke-dasharray="none" width="138.5" height="352.5" transform="scale(1,1) translate(0,0)" fill="none"><rect width="138.5" height="352.5"/></g><g width="130.83333333333334" height="344.8333333333333" transform="scale(1,1) translate(3.833,3.833)"><text width="130.83333333333334" height="37.5" transform="scale(1,1) translate(0,153.66666666666666)" xml:space="preserve"><tspan xml:space="preserve" text-rendering="optimizeSpeed" font-size="16.666666666666668" font-weight="bold" font-style="normal" text-decoration="none" fill="#000000" opacity="1" x="21.17" text-anchor="start" y="15.625" textLength="88.49283599853516" style="font-family: Arial Narrow, Arial, Helvetica, sans-serif;">TransModeler</tspan><tspan xml:space="preserve" text-rendering="optimizeSpeed" font-size="16.666666666666668" font-weight="bold" font-style="normal" text-decoration="none" fill="#000000" opacity="1" x="50.231" text-anchor="start" y="34.375" textLength="30.371091842651367" style="font-family: Arial Narrow, Arial, Helvetica, sans-serif;">Host</tspan></text></g></g><g width="142.5" height="357" transform="scale(1,1) translate(751.5,168)"><g stroke="#FFC000" stroke-opacity="1" stroke-width="2" stroke-dasharray="none" width="142.5" height="357" transform="scale(1,1) translate(0,0)" fill="none"><rect width="142.5" height="357"/></g><g width="134.83333333333334" height="349.3333333333333" transform="scale(1,1) translate(3.833,3.833)"><text width="134.83333333333334" height="37.5" transform="scale(1,1) translate(0,155.91666666666666)" xml:space="preserve"><tspan xml:space="preserve" text-rendering="optimizeSpeed" font-size="16.666666666666668" font-weight="bold" font-style="normal" text-decoration="none" fill="#000000" opacity="1" x="15.195" text-anchor="start" y="15.625" textLength="104.44335174560547" style="font-family: Arial Narrow, Arial, Helvetica, sans-serif;">Vehicle Monitor</tspan><tspan xml:space="preserve" text-rendering="optimizeSpeed" font-size="16.666666666666668" font-weight="bold" font-style="normal" text-decoration="none" fill="#000000" opacity="1" x="46.535" text-anchor="start" y="34.375" textLength="41.764320373535156" style="font-family: Arial Narrow, Arial, Helvetica, sans-serif;">Plugin</tspan></text></g></g><g width="616.5" height="4.833" transform="scale(1,1) translate(241.833,168)"><g transform="scale(1,1) translate(0,0)" fill="#545454" stroke="#545454" stroke-opacity="1"><path d="M 0 4.833 L 0 -83 L 616.5 -83 L 616.5 -8" fill="none" stroke-width="2" stroke-dasharray="none"/><g><g stroke-dasharray="none"><path d="M620.5,-8L616.5,0L612.5,-8z" stroke="none" fill-opacity="1"/></g></g></g><g stroke-width="0" stroke-dasharray="none" fill="#F2F2F2" opacity="1" width="179.946" height="20.75" transform="scale(1,1) translate(218.277,-93.375)"><rect width="179.946" height="20.75"/></g><g width="177.94595336914062" height="87.83333333333333" transform="scale(1,1) translate(219.277,-92.375)"><text width="177.94595336914062" height="18.75" transform="scale(1,1) translate(0,0)" xml:space="preserve"><tspan xml:space="preserve" text-rendering="optimizeSpeed" font-size="16.666666666666668" font-weight="bold" font-style="normal" text-decoration="none" fill="#000000" opacity="1" x="0" text-anchor="start" y="15.625" textLength="170.32876586914062" style="font-family: Arial Narrow, Arial, Helvetica, sans-serif;"> DLL PROCESS ATTACH</tspan></text></g></g><g width="616.5" height="2" transform="scale(1,1) translate(241.833,525)"><g transform="scale(1,1) translate(0,0)" fill="#545454" stroke="#545454" stroke-opacity="1"><path d="M 0 0.33299999999999996 L 0 64.333 L 616.5 64.333 L 616.5 8" fill="none" stroke-width="2" stroke-dasharray="none"/><g><g stroke-dasharray="none"><path d="M612.5,8L616.5,0L620.5,8z" stroke="none" fill-opacity="1"/></g></g></g><g stroke-width="0" stroke-dasharray="none" fill="#F2F2F2" opacity="1" width="219.708" height="20.75" transform="scale(1,1) translate(198.396,53.958)"><rect width="219.708" height="20.75"/></g><g width="217.7083282470703" height="64.33333333333337" transform="scale(1,1) translate(199.396,54.958)"><text width="217.7083282470703" height="18.75" transform="scale(1,1) translate(0,0)" xml:space="preserve"><tspan xml:space="preserve" text-rendering="optimizeSpeed" font-size="16.666666666666668" font-weight="bold" font-style="normal" text-decoration="none" fill="#333333" opacity="1" x="0" text-anchor="start" y="15.625" textLength="179.70376586914062" style="font-family: Arial Narrow, Arial, Helvetica, sans-serif;">  DLL PROCESS DETACH</tspan></text></g></g><g width="408.333" height="91.667" transform="scale(1,1) translate(341.667,216.667)"><g transform="scale(1,1) translate(0,0)" fill="#000000" stroke="#000000" stroke-opacity="1"><path d="M 0 0 A 61 45.833 0 0 1 61 45.833 A 347.333 45.833 0 0 0 400.333 91.654" fill="none" stroke-width="2" stroke-dasharray="none"/><g><g stroke-dasharray="none"><path d="M400.339,87.654L408.333,91.667L400.327,95.654z" stroke="none" fill-opacity="1"/></g></g></g><g stroke-width="0" stroke-dasharray="none" fill="#FFFFFF" opacity="1" width="92.381" height="20.75" transform="scale(1,1) translate(14.81,35.458)"><rect width="92.381" height="20.75"/></g><g width="90.380859375" height="91.66666666666666" transform="scale(1,1) translate(15.81,36.458)"><text width="90.380859375" height="18.75" transform="scale(1,1) translate(0,0)" xml:space="preserve"><tspan xml:space="preserve" text-rendering="optimizeSpeed" font-size="16.666666666666668" font-weight="bold" font-style="normal" text-decoration="underline" fill="#333333" opacity="1" x="0" text-anchor="start" y="15.625" textLength="90.380859375" style="font-family: Arial Narrow, Arial, Helvetica, sans-serif;">Firing Events</tspan></text><g width="90.380859375" height="18.75" transform="scale(1,1) translate(0,0)"><path d="M0,17.625h90.381" stroke-width="1" stroke="#333333" fill="none"/></g></g></g><g width="400" height="66.667" transform="scale(1,1) translate(350,408.333)"><g transform="scale(1,1) translate(0,0)" fill="#000000" stroke="#000000" stroke-opacity="1"><path d="M 8 66.655 A 297.5 33.333 0 0 0 297.5 33.333 A 102.5 33.333 0 0 1 400 0" fill="none" stroke-width="2" stroke-dasharray="none"/><g><g stroke-dasharray="none"><path d="M8.006,70.655L0,66.667L7.994,62.655z" stroke="none" fill-opacity="1"/></g></g></g><g stroke-width="0" stroke-dasharray="none" fill="#FFFFFF" opacity="1" width="105.304" height="20.75" transform="scale(1,1) translate(244.848,22.958)"><rect width="105.304" height="20.75"/></g><g width="103.30403137207031" height="66.66666666666669" transform="scale(1,1) translate(245.848,23.958)"><text width="103.30403137207031" height="18.75" transform="scale(1,1) translate(0,0)" xml:space="preserve"><tspan xml:space="preserve" text-rendering="optimizeSpeed" font-size="16.666666666666668" font-weight="bold" font-style="normal" text-decoration="underline" fill="#333333" opacity="1" x="0" text-anchor="start" y="15.625" textLength="103.30403137207031" style="font-family: Arial Narrow, Arial, Helvetica, sans-serif;">Event Handlers</tspan></text><g width="103.30403137207031" height="18.75" transform="scale(1,1) translate(0,0)"><path d="M0,17.625h103.304" stroke-width="1" stroke="#333333" fill="none"/></g></g></g><g width="475.833" height="4.833" transform="scale(1,1) translate(311.167,168)"><g transform="scale(1,1) translate(0,0)" fill="#000000" stroke="#000000" stroke-opacity="1"><path d="M 0 -3.167 L 0 -50 L 475.833 -50 L 475.833 0" fill="none" stroke-width="2" stroke-dasharray="none"/><g><g stroke-dasharray="none"><path d="M4,-3.167L0,4.833L-4,-3.167z" stroke="none" fill-opacity="1"/></g></g></g><g stroke-width="0" stroke-dasharray="none" fill="#FDEADA" opacity="1" width="190.656" height="20.75" transform="scale(1,1) translate(142.589,-60.375)"><rect width="190.656" height="20.75"/></g><g width="188.65559339523315" height="54.83333333333333" transform="scale(1,1) translate(143.589,-59.375)"><text width="188.65559339523315" height="18.75" transform="scale(1,1) translate(0,0)" xml:space="preserve"><tspan xml:space="preserve" text-rendering="optimizeSpeed" font-size="16.666666666666668" font-weight="bold" font-style="normal" text-decoration="none" fill="#000000" opacity="1" x="0" text-anchor="start" y="15.625" textLength="167.08984375" style="font-family: Arial Narrow, Arial, Helvetica, sans-serif;">  RegisterVehicleMonitor</tspan></text></g></g><g width="475.833" height="2" transform="scale(1,1) translate(311.167,525)"><g transform="scale(1,1) translate(0,0)" fill="#000000" stroke="#000000" stroke-opacity="1"><path d="M 0 8.333 L 0 24.333 L 475.833 24.333 L 475.833 0" fill="none" stroke-width="2" stroke-dasharray="none"/><g><g stroke-dasharray="none"><path d="M-4,8.333L0,0.333L4,8.333z" stroke="none" fill-opacity="1"/></g></g></g><g stroke-width="0" stroke-dasharray="none" fill="#FDEADA" opacity="1" width="197.964" height="20.75" transform="scale(1,1) translate(138.935,13.958)"><rect width="197.964" height="20.75"/></g><g width="195.96353149414062" height="24.33333333333337" transform="scale(1,1) translate(139.935,14.958)"><text width="195.96353149414062" height="18.75" transform="scale(1,1) translate(0,0)" xml:space="preserve"><tspan xml:space="preserve" text-rendering="optimizeSpeed" font-size="16.666666666666668" font-weight="bold" font-style="normal" text-decoration="none" fill="#000000" opacity="1" x="0" text-anchor="start" y="15.625" textLength="180.76171875" style="font-family: Arial Narrow, Arial, Helvetica, sans-serif;">  UnregisterVehicleMonitor</tspan></text></g></g><g width="194.108" height="220.5" transform="scale(1,1) translate(488.833,187.667)"><g stroke="#000000" stroke-opacity="1" stroke-width="0" stroke-dasharray="none" width="194.108" height="220.5" transform="scale(1,1) translate(0,0)" fill="#FFFFFF" fill-opacity="1"><rect width="194.108" height="220.5"/></g><g width="194.1080675125122" height="220.5" transform="scale(1,1) translate(0,0)"><text width="194.1080675125122" height="177.08332061767578" transform="scale(1,1) translate(0,0)" xml:space="preserve"><tspan xml:space="preserve" text-rendering="optimizeSpeed" font-size="15.277777777777779" font-weight="bold" font-style="normal" text-decoration="none" fill="#333333" opacity="1" x="14.583" text-anchor="start" y="14.583" textLength="76.54621887207031" style="font-family: Arial Narrow, Arial, Helvetica, sans-serif;">OnDeparture</tspan><tspan xml:space="preserve" text-rendering="optimizeSpeed" font-size="15.277777777777779" font-weight="bold" font-style="normal" text-decoration="none" fill="#333333" opacity="1" x="14.583" text-anchor="start" y="32.292" textLength="57.080074310302734" style="font-family: Arial Narrow, Arial, Helvetica, sans-serif;">OnArrival</tspan><tspan xml:space="preserve" text-rendering="optimizeSpeed" font-size="15.277777777777779" font-weight="bold" font-style="normal" text-decoration="none" fill="#333333" opacity="1" x="14.583" text-anchor="start" y="50" textLength="90.46223449707031" style="font-family: Arial Narrow, Arial, Helvetica, sans-serif;">OnStateUpdate</tspan><tspan xml:space="preserve" text-rendering="optimizeSpeed" font-size="15.277777777777779" font-weight="bold" font-style="normal" text-decoration="none" fill="#333333" opacity="1" x="14.583" text-anchor="start" y="67.708" textLength="112.72785949707031" style="font-family: Arial Narrow, Arial, Helvetica, sans-serif;">OnPositionChange</tspan><tspan xml:space="preserve" text-rendering="optimizeSpeed" font-size="15.277777777777779" font-weight="bold" font-style="normal" text-decoration="none" fill="#333333" opacity="1" x="14.583" text-anchor="start" y="85.417" textLength="58.463539123535156" style="font-family: Arial Narrow, Arial, Helvetica, sans-serif;">OnStalled</tspan><tspan xml:space="preserve" text-rendering="optimizeSpeed" font-size="15.277777777777779" font-weight="bold" font-style="normal" text-decoration="none" fill="#333333" opacity="1" x="14.583" text-anchor="start" y="103.125" textLength="59.16341018676758" style="font-family: Arial Narrow, Arial, Helvetica, sans-serif;">OnParked</tspan><tspan xml:space="preserve" text-rendering="optimizeSpeed" font-size="15.277777777777779" font-weight="bold" font-style="normal" text-decoration="none" fill="#333333" opacity="1" x="14.583" text-anchor="start" y="120.833" textLength="86.279296875" style="font-family: Arial Narrow, Arial, Helvetica, sans-serif;">OnTransitStop</tspan><tspan xml:space="preserve" text-rendering="optimizeSpeed" font-size="15.277777777777779" font-weight="bold" font-style="normal" text-decoration="none" fill="#333333" opacity="1" x="14.583" text-anchor="start" y="138.542" textLength="80.74543762207031" style="font-family: Arial Narrow, Arial, Helvetica, sans-serif;">OnAccelerate</tspan><tspan xml:space="preserve" text-rendering="optimizeSpeed" font-size="15.277777777777779" font-weight="bold" font-style="normal" text-decoration="none" fill="#333333" opacity="1" x="14.583" text-anchor="start" y="156.25" textLength="92.54557037353516" style="font-family: Arial Narrow, Arial, Helvetica, sans-serif;">OnLaneChange</tspan><tspan xml:space="preserve" text-rendering="optimizeSpeed" font-size="15.277777777777779" font-weight="bold" font-style="normal" text-decoration="none" fill="#333333" opacity="1" x="14.583" text-anchor="start" y="173.958" textLength="179.5247344970703" style="font-family: Arial Narrow, Arial, Helvetica, sans-serif;">OnCalculateCarFollowingRate</tspan></text><g width="194.1080675125122" height="177.08332061767578" transform="scale(1,1) translate(0,0)"><g width="7.292" height="7.292" transform="scale(1,1) translate(3.646,7.292)" fill="#333333" stroke="none" stroke-width="0" stroke-dasharray="none"><ellipse rx="3.646" ry="3.646" cx="3.646" cy="3.646"/></g><g width="7.292" height="7.292" transform="scale(1,1) translate(3.646,25)" fill="#333333" stroke="none" stroke-width="0" stroke-dasharray="none"><ellipse rx="3.646" ry="3.646" cx="3.646" cy="3.646"/></g><g width="7.292" height="7.292" transform="scale(1,1) translate(3.646,42.708)" fill="#333333" stroke="none" stroke-width="0" stroke-dasharray="none"><ellipse rx="3.646" ry="3.646" cx="3.646" cy="3.646"/></g><g width="7.292" height="7.292" transform="scale(1,1) translate(3.646,60.417)" fill="#333333" stroke="none" stroke-width="0" stroke-dasharray="none"><ellipse rx="3.646" ry="3.646" cx="3.646" cy="3.646"/></g><g width="7.292" height="7.292" transform="scale(1,1) translate(3.646,78.125)" fill="#333333" stroke="none" stroke-width="0" stroke-dasharray="none"><ellipse rx="3.646" ry="3.646" cx="3.646" cy="3.646"/></g><g width="7.292" height="7.292" transform="scale(1,1) translate(3.646,95.833)" fill="#333333" stroke="none" stroke-width="0" stroke-dasharray="none"><ellipse rx="3.646" ry="3.646" cx="3.646" cy="3.646"/></g><g width="7.292" height="7.292" transform="scale(1,1) translate(3.646,113.542)" fill="#333333" stroke="none" stroke-width="0" stroke-dasharray="none"><ellipse rx="3.646" ry="3.646" cx="3.646" cy="3.646"/></g><g width="7.292" height="7.292" transform="scale(1,1) translate(3.646,131.25)" fill="#333333" stroke="none" stroke-width="0" stroke-dasharray="none"><ellipse rx="3.646" ry="3.646" cx="3.646" cy="3.646"/></g><g width="7.292" height="7.292" transform="scale(1,1) translate(3.646,148.958)" fill="#333333" stroke="none" stroke-width="0" stroke-dasharray="none"><ellipse rx="3.646" ry="3.646" cx="3.646" cy="3.646"/></g><g width="7.292" height="7.292" transform="scale(1,1) translate(3.646,166.667)" fill="#333333" stroke="none" stroke-width="0" stroke-dasharray="none"><ellipse rx="3.646" ry="3.646" cx="3.646" cy="3.646"/></g></g></g></g></g></svg>